<?xml version="1.0" encoding="UTF-8" standalone="no"?>
<svg
   viewBox="0 0 813.88263 69.561995"
   height="69.561996"
   width="813.88263"
   xml:space="preserve"
   id="svg2"
   version="1.1"
   sodipodi:docname="Carolina Herrera logo.svg"
   inkscape:version="1.1.1 (3bf5ae0d25, 2021-09-20)"
   xmlns:inkscape="http://www.inkscape.org/namespaces/inkscape"
   xmlns:sodipodi="http://sodipodi.sourceforge.net/DTD/sodipodi-0.dtd"
   xmlns="http://www.w3.org/2000/svg"
   xmlns:svg="http://www.w3.org/2000/svg"
   xmlns:rdf="http://www.w3.org/1999/02/22-rdf-syntax-ns#"
   xmlns:cc="http://creativecommons.org/ns#"
   xmlns:dc="http://purl.org/dc/elements/1.1/"><sodipodi:namedview
     id="namedview22"
     pagecolor="#ffffff"
     bordercolor="#999999"
     borderopacity="1"
     inkscape:pageshadow="0"
     inkscape:pageopacity="0"
     inkscape:pagecheckerboard="0"
     showgrid="false"
     fit-margin-top="10"
     fit-margin-right="10"
     fit-margin-bottom="10"
     fit-margin-left="10"
     inkscape:zoom="1.4242384"
     inkscape:cx="491.13969"
     inkscape:cy="34.755418"
     inkscape:window-width="1920"
     inkscape:window-height="1001"
     inkscape:window-x="-9"
     inkscape:window-y="-9"
     inkscape:window-maximized="1"
     inkscape:current-layer="svg2" /><metadata
     id="metadata8"><rdf:RDF><cc:Work
         rdf:about=""><dc:format>image/svg+xml</dc:format><dc:type
           rdf:resource="http://purl.org/dc/dcmitype/StillImage" /></cc:Work></rdf:RDF></metadata><defs
     id="defs6" /><g
     transform="matrix(1.3333333,0,0,-1.3333333,-48.035999,127.77653)"
     id="g10"><g
       transform="scale(0.1)"
       id="g12"><path
         id="path14"
         style="fill:#1d1d1b;fill-opacity:1;fill-rule:nonzero;stroke:none"
         d="m 1317.6,710.027 h 56.89 c 21.16,0 51.59,5.293 66.14,15.875 15.87,11.911 23.81,33.071 23.81,63.496 0,29.106 -6.61,52.915 -18.52,63.497 -11.9,10.585 -39.68,17.195 -60.85,17.195 h -67.47 z m 268.54,-193.125 h -150.8 v 6.602 h 38.36 l -87.31,178.59 h -68.79 v -178.59 h 38.36 v -6.602 h -137.57 v 6.602 h 33.07 v 343.945 h -38.36 v 7.934 h 198.43 c 42.32,0 71.43,-7.934 88.63,-23.813 18.52,-15.871 26.46,-38.359 26.46,-67.461 0,-37.039 -14.55,-60.855 -44.98,-74.082 -9.26,-3.968 -27.79,-7.933 -47.62,-7.933 -6.62,0 -30.43,0 -34.4,0 2.65,-3.973 11.91,-21.172 31.75,-33.067 14.55,-7.949 31.75,-13.242 50.27,-13.242 v 0 l 64.82,-132.281 h 39.68 v -6.602" /><path
         id="path16"
         style="fill:#1d1d1b;fill-opacity:1;fill-rule:nonzero;stroke:none"
         d="M 900.902,645.223 H 1042.46 L 972.34,798.66 Z M 1199.87,516.902 h -144.19 v 6.602 h 38.37 L 1045.1,637.273 H 896.938 L 844.027,523.504 h 42.325 v -6.602 h -87.305 v 6.602 h 38.359 l 166.684,359.82 162.71,-358.492 h 34.4 v -7.93 h -1.33" /><path
         id="path18"
         style="fill:#1d1d1b;fill-opacity:1;fill-rule:nonzero;stroke:none"
         d="m 3067.73,645.223 h 141.54 l -70.1,153.437 z m 300.28,-128.321 h -144.19 v 6.602 h 38.36 l -48.94,113.769 h -148.16 l -52.91,-113.769 h 42.33 v -6.602 h -87.31 v 6.602 h 38.36 l 165.36,359.82 162.71,-358.492 h 34.39 v -7.93 0" /><path
         id="path20"
         style="fill:#1d1d1b;fill-opacity:1;fill-rule:nonzero;stroke:none"
         d="m 2926.19,516.902 -300.3,350.547 V 523.504 h 38.37 v -6.602 h -84.67 v 6.602 h 38.37 v 343.945 h -38.37 v 7.934 h 125.68 v 0 l 214.3,-248.695 V 868.77 h -38.36 v 6.613 h 84.65 V 868.77 H 2927.5 V 516.902 h -1.31" /><path
         id="path22"
         style="fill:#1d1d1b;fill-opacity:1;fill-rule:nonzero;stroke:none"
         d="m 2531.98,516.902 h -141.55 v 6.602 h 38.36 v 343.945 h -38.36 v 7.934 h 141.55 v -6.613 h -38.37 V 524.832 h 38.37 v -7.93" /><path
         id="path24"
         style="fill:#1d1d1b;fill-opacity:1;fill-rule:nonzero;stroke:none"
         d="m 1791.19,874.063 v 0 c -85.99,-1.325 -129.64,-62.176 -129.64,-179.911 0,-18.523 0,-63.48 17.2,-101.859 19.83,-46.289 58.2,-71.426 112.44,-72.754 54.23,1.328 92.59,25.137 112.44,72.754 17.2,39.687 17.2,83.336 17.2,101.859 0,117.735 -43.67,178.586 -129.64,179.911 z m 0,-362.454 c -74.09,0 -120.38,31.739 -145.52,58.204 -33.07,33.066 -51.59,79.375 -51.59,124.339 0,51.594 18.52,97.891 52.91,130.965 35.72,35.715 88.63,55.559 142.87,55.559 1.33,0 1.33,0 2.64,0 v 0 0 c 55.56,0 105.83,-18.52 141.55,-52.914 35.72,-33.071 55.55,-80.692 55.55,-130.961 -1.31,-54.235 -21.16,-100.524 -58.2,-133.61 -35.71,-31.738 -85.98,-50.253 -140.21,-51.582" /><path
         id="path26"
         style="fill:#1d1d1b;fill-opacity:1;fill-rule:nonzero;stroke:none"
         d="m 2338.84,516.902 h -301.61 v 6.602 h 38.36 v 343.945 h -38.36 v 7.934 h 144.19 v -6.613 h -39.69 V 524.832 h 104.52 c 59.52,0 82.01,99.219 85.97,150.797 v 0 h 6.62 V 516.902" /><path
         id="path28"
         style="fill:#1d1d1b;fill-opacity:1;fill-rule:nonzero;stroke:none"
         d="m 3958,516.902 h -142.87 v 6.602 h 38.36 V 700.77 H 3666.98 V 524.832 h 38.36 v -6.621 h -142.87 v 6.621 h 38.36 V 868.77 h -38.36 v 6.613 h 142.87 v -6.613 h -38.36 V 707.383 h 186.51 V 868.77 h -38.36 v 6.613 H 3958 v -6.613 h -38.37 V 524.832 H 3958 v -7.93" /><path
         id="path30"
         style="fill:#1d1d1b;fill-opacity:1;fill-rule:nonzero;stroke:none"
         d="m 4329.72,516.902 h -306.9 v 6.602 h 38.37 v 343.945 h -38.37 v 7.934 h 306.9 V 747.07 h -6.62 v 0 c -1.32,56.879 -37.03,121.7 -87.3,121.7 H 4126 V 711.352 h 51.59 c 47.62,0 55.56,27.777 56.89,82.015 v 0 h 6.61 V 618.758 h -6.61 v 0 c 0,31.738 -3.98,51.578 -11.91,63.492 -7.94,13.227 -22.49,19.844 -44.98,19.844 H 4126 V 522.195 h 109.8 c 50.27,0 82.02,78.047 85.98,150.797 v 0 h 6.61 v -156.09 h 1.33" /><path
         id="path32"
         style="fill:#1d1d1b;fill-opacity:1;fill-rule:nonzero;stroke:none"
         d="m 4509.62,710.027 h 56.89 c 21.16,0 51.59,5.293 66.14,15.875 15.88,11.911 23.81,33.071 23.81,63.496 0,29.106 -6.61,52.915 -18.52,63.497 -11.9,10.585 -39.68,17.195 -60.85,17.195 h -67.47 z m 268.54,-193.125 h -150.8 v 6.602 h 38.36 l -87.31,178.59 h -68.79 v -178.59 h 38.37 v -6.602 h -137.57 v 6.602 h 33.06 v 343.945 h -38.36 v 7.934 h 198.43 c 42.33,0 71.44,-7.934 88.63,-23.813 18.52,-15.871 26.46,-38.359 26.46,-67.461 0,-37.039 -14.55,-60.855 -44.98,-74.082 -9.26,-3.968 -27.78,-7.933 -47.62,-7.933 -6.62,0 -30.43,0 -34.39,0 2.64,-3.973 11.9,-21.172 31.74,-33.067 14.55,-7.949 31.75,-13.242 50.27,-13.242 v 0 l 64.82,-132.281 h 38.36 v -6.602 h 1.32" /><path
         id="path34"
         style="fill:#1d1d1b;fill-opacity:1;fill-rule:nonzero;stroke:none"
         d="m 4917.07,710.027 h 56.87 c 21.17,0 51.59,5.293 66.14,15.875 15.88,11.911 23.82,33.071 23.82,63.496 0,29.106 -6.62,52.915 -18.52,63.497 -11.91,10.585 -39.69,17.195 -60.85,17.195 h -67.46 z M 5185.6,516.902 h -150.8 v 6.602 h 38.36 l -87.31,179.91 h -68.78 V 524.832 h 38.35 v -6.621 h -137.57 v 6.621 h 33.07 V 868.77 h -38.37 v 6.613 h 198.43 c 42.34,0 71.44,-7.934 88.63,-23.813 18.53,-15.871 26.46,-38.359 26.46,-67.461 0,-37.039 -14.55,-60.855 -44.97,-74.082 -9.27,-3.968 -27.78,-7.933 -47.63,-7.933 -6.61,0 -30.42,0 -34.39,0 2.64,-3.973 11.9,-21.172 31.75,-33.067 14.55,-7.949 31.74,-13.242 50.27,-13.242 v 0 l 64.81,-132.281 h 38.36 v -6.602 h 1.33" /><path
         id="path36"
         style="fill:#1d1d1b;fill-opacity:1;fill-rule:nonzero;stroke:none"
         d="m 5712.09,710.027 h 56.89 c 21.16,0 51.58,5.293 66.13,15.875 15.88,11.911 23.82,33.071 23.82,63.496 0,29.106 -6.62,52.915 -18.52,63.497 -9.26,7.937 -33.07,17.195 -60.85,17.195 h -67.47 z m 268.54,-193.125 h -150.8 v 6.602 h 38.36 l -87.31,178.59 h -68.79 v -178.59 h 38.36 v -6.602 h -137.57 v 6.602 h 33.07 v 343.945 h -38.36 v 7.934 h 198.42 c 42.33,0 71.44,-7.934 88.63,-23.813 18.53,-15.871 26.46,-38.359 26.46,-67.461 0,-37.039 -14.55,-60.855 -44.97,-74.082 -9.26,-3.968 -27.79,-7.933 -47.63,-7.933 -6.61,0 -30.42,0 -34.39,0 2.64,-3.973 11.9,-21.172 31.74,-33.067 14.56,-7.949 31.75,-13.242 50.28,-13.242 v 0 l 64.81,-132.281 h 38.37 v -6.602 h 1.32" /><path
         id="path38"
         style="fill:#1d1d1b;fill-opacity:1;fill-rule:nonzero;stroke:none"
         d="m 6087.78,645.223 h 141.54 l -70.11,153.437 z m 300.28,-128.321 h -144.19 v 6.602 h 38.37 l -48.94,113.769 h -148.17 l -52.91,-113.769 h 42.34 v -6.602 h -78.05 v 6.602 h 29.1 L 6192.29,883.324 6355,524.832 h 34.39 v -7.93 h -1.33" /><path
         id="path40"
         style="fill:#1d1d1b;fill-opacity:1;fill-rule:nonzero;stroke:none"
         d="m 5532.18,516.902 h -308.22 v 6.602 h 38.37 v 343.945 h -38.37 v 7.934 h 306.9 V 747.07 h -6.61 v 0 c -1.33,56.879 -37.04,121.7 -87.31,121.7 H 5328.47 V 711.352 h 51.58 c 47.63,0 55.57,27.777 56.89,82.015 v 0 h 6.62 V 618.758 h -6.62 v 0 c 0,31.738 -3.97,51.578 -11.91,63.492 -7.94,13.227 -22.49,19.844 -44.98,19.844 h -51.58 V 522.195 h 109.8 c 50.26,0 82.01,78.047 85.98,150.797 v 0 h 6.61 v -156.09 h 1.32" /><path
         id="path42"
         style="fill:#1d1d1b;fill-opacity:1;fill-rule:nonzero;stroke:none"
         d="m 627.074,511.609 c -41.004,0 -72.754,9.258 -104.5,27.774 -52.91,33.066 -87.304,92.597 -87.304,154.769 0,0 0,1.325 0,2.649 v 1.32 c 0,62.176 34.394,121.703 88.632,156.098 30.418,18.519 63.496,27.781 103.172,27.781 1.328,0 2.649,0 3.977,0 29.101,0 56.875,-6.617 83.34,-17.195 9.257,-6.617 19.843,-7.942 29.101,-7.942 17.196,0 26.453,5.293 33.067,19.844 v 0 h 6.621 V 751.039 h -6.621 v 0 c -1.321,62.172 -63.496,120.375 -128.313,121.699 -2.644,0 -5.293,0 -6.621,0 -38.359,0 -68.777,-10.582 -91.27,-31.75 -29.101,-26.453 -44.98,-74.078 -46.296,-140.218 0,-1.325 0,-3.969 0,-5.293 v 0 c 1.316,-68.789 18.515,-119.043 50.261,-149.473 23.809,-21.172 55.559,-30.43 93.926,-26.465 35.715,3.965 67.461,18.516 91.27,41.016 23.82,22.48 37.043,51.582 37.043,80.683 v 0 h 6.621 V 516.902 h -6.621 v 0 c -6.614,13.223 -17.2,19.844 -33.067,19.844 -7.941,0 -19.844,-1.328 -31.75,-6.621 -26.453,-11.914 -54.238,-18.516 -82.019,-18.516 0,0 -1.321,0 -2.649,0" /></g></g></svg>
