<?xml version="1.0" encoding="UTF-8" standalone="no"?>
<svg
   class="headerLogo"
   width="415.71954"
   height="164.43259"
   viewBox="0 0 182.9166 72.349543"
   version="1.1"
   id="svg4"
   sodipodi:docname="Creed Fragrances logo.svg"
   inkscape:version="1.4 (86a8ad7, 2024-10-11)"
   xmlns:inkscape="http://www.inkscape.org/namespaces/inkscape"
   xmlns:sodipodi="http://sodipodi.sourceforge.net/DTD/sodipodi-0.dtd"
   xmlns="http://www.w3.org/2000/svg"
   xmlns:svg="http://www.w3.org/2000/svg">
  <defs
     id="defs4" />
  <sodipodi:namedview
     id="namedview4"
     pagecolor="#ffffff"
     bordercolor="#000000"
     borderopacity="0.25"
     inkscape:showpageshadow="2"
     inkscape:pageopacity="0.0"
     inkscape:pagecheckerboard="0"
     inkscape:deskcolor="#d1d1d1"
     inkscape:zoom="3.1606992"
     inkscape:cx="189.98961"
     inkscape:cy="90.6445"
     inkscape:window-width="1920"
     inkscape:window-height="1001"
     inkscape:window-x="-9"
     inkscape:window-y="-9"
     inkscape:window-maximized="1"
     inkscape:current-layer="svg4" />
  <g
     fill="none"
     fill-rule="evenodd"
     id="g4"
     transform="translate(-18.618569,-18.550258)">
    <g
       fill="#222222"
       fill-rule="nonzero"
       id="g3">
      <g
         fill="#222222"
         id="g2">
        <g
           fill="#222222"
           id="g1">
          <path
             d="M 102.683,24.368 H 75.388 V 1.523 H 102.3 V 6.32 H 81.428 v 3.96 h 19.879 v 4.874 h -19.88 v 4.264 h 21.256 z m 37.465,-4.874 h -21.256 v -4.34 h 19.88 V 10.28 h -19.88 V 6.32 h 20.797 V 1.447 h -26.837 v 22.845 h 27.296 z m 42.587,-11.27 c -0.612,-1.37 -1.606,-2.589 -2.753,-3.579 -1.3,-1.066 -2.829,-1.827 -4.434,-2.284 -1.835,-0.61 -3.823,-0.914 -5.735,-0.914 H 150.7 v 22.845 h 5.581 V 6.702 h 14.069 c 0.994,0 1.911,0.151 2.829,0.456 0.84,0.305 1.605,0.762 2.293,1.37 0.612,0.61 1.147,1.295 1.453,2.133 0.306,0.761 0.459,1.523 0.459,2.284 v 1.295 c -0.612,4.797 -4.435,7.996 -13.228,10.813 -1.529,0.533 -3.134,0.99 -4.816,1.37 L 92.286,42.643 25.156,26.423 20.262,25.129 C 14.374,23.302 7.264,19.951 7.264,13.25 7.264,12.26 7.493,11.27 7.952,10.432 8.41,9.595 8.946,8.833 9.71,8.224 c 0.841,-0.609 1.759,-1.142 2.753,-1.447 1.223,-0.38 2.523,-0.533 3.823,-0.533 1.835,0 3.67,0.381 5.352,1.066 2.523,1.143 4.893,2.666 6.88,4.57 V 4.796 C 27.296,3.883 26.072,3.121 24.696,2.436 22.096,1.294 19.267,0.684 16.438,0.76 14.221,0.76 12.004,1.065 9.94,1.75 8.028,2.36 6.27,3.273 4.74,4.492 2.14,6.549 0.688,9.595 0.765,12.869 c -0.153,3.199 0.917,6.32 2.905,8.834 2.982,3.503 8.716,7.082 21.026,10.051 L 81.046,45.309 14.68,61.3 H 37.006 L 92.208,47.974 147.488,61.3 h 22.249 L 103.37,45.31 159.796,31.755 c 12.234,-3.046 18.044,-6.549 21.026,-10.051 1.988,-2.513 2.982,-5.635 2.83,-8.834 0,-1.599 -0.307,-3.122 -0.995,-4.569 l 0.077,-0.076 z M 44.04,24.444 H 37.923 V 1.599 h 18.58 c 1.223,-0.076 2.446,0.076 3.593,0.457 0.994,0.305 1.911,0.838 2.753,1.523 0.688,0.685 1.3,1.447 1.682,2.36 0.382,0.99 0.611,1.98 0.611,3.047 0,3.503 -1.529,5.94 -4.587,7.005 l 7.263,8.377 H 60.402 L 53.597,16.6 H 44.04 v 7.843 z m 0,-12.717 h 11.927 c 0.918,0.076 1.759,-0.228 2.447,-0.761 0.612,-0.534 0.917,-1.295 0.917,-2.057 0,-0.685 -0.305,-1.37 -0.917,-1.827 C 57.726,6.549 56.808,6.32 55.967,6.32 H 43.963 Z m 0,12.717 H 37.923 V 1.599 h 18.58 c 1.223,-0.076 2.446,0.076 3.593,0.457 0.994,0.305 1.911,0.838 2.753,1.523 0.688,0.685 1.3,1.447 1.682,2.36 0.382,0.99 0.611,1.98 0.611,3.047 0,3.503 -1.529,5.94 -4.587,7.005 l 7.263,8.377 H 60.402 L 53.597,16.6 H 44.04 v 7.843 z m 0,-12.717 h 11.927 c 0.918,0.076 1.759,-0.228 2.447,-0.761 0.612,-0.534 0.917,-1.295 0.917,-2.057 0,-0.685 -0.305,-1.37 -0.917,-1.827 C 57.726,6.549 56.808,6.32 55.967,6.32 H 43.963 Z M 69.347,72.19 c 0,0.38 -0.076,0.533 -0.458,0.533 v 0.228 H 72.1 v -0.228 c -0.382,0 -0.459,-0.152 -0.459,-0.533 v -9.747 c 0,-0.381 0.077,-0.61 0.459,-0.61 v -0.228 h -3.058 v 0.228 c 0.229,0 0.382,0.153 0.382,0.381 0,0.457 -0.765,0.762 -1.07,0.762 -0.306,0 -0.383,0 -0.383,-0.305 h -0.23 v 2.513 h 0.23 c 0,-0.38 0.23,-0.61 1.376,-0.685 v 7.69 z m 9.634,0 c -0.076,0.304 -0.382,0.533 -0.688,0.533 v 0.228 h 3.517 v -0.228 c -0.153,0 -0.306,0 -0.306,-0.152 0,-0.153 0.077,-0.305 0.153,-0.457 l 5.352,-8.758 V 61.3 h -0.23 c 0,0.229 -0.228,0.381 -0.61,0.381 h -9.1 c -0.305,0 -0.534,-0.152 -0.534,-0.38 h -0.23 v 2.588 h 0.23 c 0,-0.228 0.229,-0.304 0.535,-0.304 h 7.263 z m 21.867,-9.747 -0.23,-0.077 c 0,0.077 -0.152,0.153 -0.229,0.153 -0.382,-0.153 -0.764,-0.305 -1.146,-0.533 -0.841,-0.305 -1.759,-0.457 -2.676,-0.457 -3.518,0 -5.888,2.36 -5.888,5.94 0,3.579 1.912,5.635 5.582,5.635 2.523,0 5.199,-1.067 5.199,-3.96 0,-2.513 -2.294,-3.808 -4.74,-3.808 -1.377,0 -2.753,0.533 -3.823,1.447 0.152,-2.284 1.605,-3.427 3.822,-3.427 1.835,0 2.753,0.914 2.753,1.219 v 0.228 l 0.23,0.076 z m -1.605,6.853 c 0,1.37 -1.147,1.98 -2.982,1.98 -1.835,0 -2.982,-0.61 -2.982,-1.98 0,-0.99 1.07,-2.056 2.982,-2.056 1.911,0 2.982,0.61 2.982,2.056 z m 11.774,-7.767 c -3.44,0 -5.734,2.437 -5.734,5.787 0,3.35 2.294,5.788 5.734,5.788 3.44,0 5.734,-2.437 5.734,-5.788 0,-3.35 -2.293,-5.863 -5.734,-5.787 z m 0,1.827 c 2.141,0 3.517,1.6 3.517,3.96 0,2.36 -1.376,3.96 -3.517,3.96 -2.14,0 -3.517,-1.6 -3.517,-3.96 0,-2.36 1.376,-3.96 3.517,-3.96 z"
             transform="translate(17.868,17.796)"
             fill="#222222"
             id="path1" />
        </g>
      </g>
    </g>
  </g>
</svg>
