<?xml version="1.0" standalone="no"?><!-- Generator: Gravit.io --><svg xmlns="http://www.w3.org/2000/svg" xmlns:xlink="http://www.w3.org/1999/xlink" style="isolation:isolate" viewBox="0 0 386 93" width="386" height="93"><defs><clipPath id="_clipPath_8gd4X8DfBU8uPLaf7aFdMTwAMIlmFYHn"><rect width="386" height="93"/></clipPath></defs><g clip-path="url(#_clipPath_8gd4X8DfBU8uPLaf7aFdMTwAMIlmFYHn)"><path d=" M 150.989 92.682 L 153.574 92.682 L 153.574 87.61 L 158.388 87.61 C 160.635 87.61 164.354 87.61 164.354 83.632 C 164.354 79.655 160.675 79.595 158.388 79.595 L 150.979 79.595 L 150.989 92.682 Z  M 153.574 85.363 L 153.574 81.743 L 158.944 81.743 C 160.436 81.743 161.729 81.862 161.729 83.533 C 161.729 85.204 160.436 85.363 158.944 85.363 L 153.574 85.363 Z  M 167.437 92.692 L 170.192 92.692 L 171.604 89.708 L 179.261 89.708 L 180.653 92.692 L 183.378 92.692 L 176.944 79.555 L 173.96 79.555 L 167.437 92.692 Z  M 172.688 87.521 L 175.472 81.554 L 178.237 87.521 L 172.688 87.521 Z  M 189.862 92.751 L 192.447 92.751 L 192.447 87.511 L 196.574 87.511 L 200.452 92.712 L 203.635 92.712 L 199.557 87.342 C 200.57 87.34 201.539 86.925 202.239 86.193 C 202.939 85.461 203.31 84.475 203.267 83.463 C 203.267 80.251 201.019 79.545 197.867 79.545 L 189.911 79.545 L 189.862 92.751 Z  M 192.447 85.422 L 192.447 81.643 L 197.479 81.643 C 199.607 81.643 200.691 81.942 200.691 83.503 C 200.691 85.064 199.597 85.363 197.489 85.363 L 192.447 85.422 Z  M 211.341 79.555 L 213.927 79.555 L 213.927 92.682 L 211.341 92.682 L 211.341 79.555 Z  M 232.294 83.533 C 231.877 82.389 230.803 81.365 227.65 81.365 C 225.88 81.365 224.12 81.813 224.12 83.016 C 224.12 83.573 224.458 84.169 227.103 84.478 L 230.236 84.975 C 233.219 85.412 234.969 86.566 234.969 88.754 C 234.969 91.837 231.986 93.03 228.446 93.03 C 222.748 93.03 221.355 90.226 221.047 89.231 L 223.533 88.465 C 224.03 89.46 225.025 90.812 228.505 90.812 C 230.644 90.812 232.384 90.116 232.384 88.982 C 232.384 88.137 231.389 87.59 229.5 87.342 L 226.318 86.914 C 223.265 86.516 221.564 85.174 221.564 83.175 C 221.564 79.247 226.715 79.247 227.73 79.247 C 233.458 79.247 234.422 81.852 234.761 82.747 L 232.294 83.533 Z  M 331.967 58.871 C 333.061 68 337.854 66.647 338.093 67.443 C 338.093 67.443 319.596 67.443 319.596 67.383 C 319.497 67.055 324.906 67.284 323.823 59.269 L 318.999 23.668 C 318.801 22.723 318.801 21.679 318.264 21.878 C 317.886 22.057 301.955 60.362 301.955 60.362 C 301.726 60.989 301.328 61.357 300.801 60.462 C 300.423 59.816 285.885 28.043 285.885 28.043 C 285.169 26.452 283.896 23.916 283.697 23.469 C 283.299 22.673 282.702 22.574 282.782 25.259 L 279.003 61.357 C 278.108 67.642 284.075 67.164 283.975 67.552 L 270.928 67.552 C 270.759 67.254 275.324 67.831 276.338 61.218 L 280.654 21.38 C 280.336 13.654 274.886 14.071 274.886 13.425 L 288.669 13.425 L 288.868 13.853 L 303.506 45.555 C 303.705 45.953 303.834 46.152 303.944 46.351 C 304.371 47.266 304.322 47.892 304.839 46.689 L 319.178 13.395 L 332.434 13.395 C 332.534 13.862 327.114 13.624 327.114 20.237 L 331.967 58.871 Z  M 29.727 65.633 C 42.486 65.464 41.889 55.838 42.734 55.917 L 40.546 67.483 L 1.067 67.483 C 1.067 67.164 8.645 67.045 8.754 61.695 L 8.754 21.281 C 8.754 14.678 1.624 14.499 1.942 14.041 L 24.218 14.041 C 23.75 14.539 16.511 14.569 16.511 21.003 L 16.511 62.948 C 16.511 66.031 19.633 65.534 22.239 65.633 L 29.717 65.633 M 113.797 61.914 C 114.563 68.577 119.664 66.886 119.664 67.522 L 105.384 67.522 C 105.384 66.876 111.102 67.522 111.012 61.496 L 111.012 20.883 C 111.112 13.872 104.946 13.862 104.807 13.325 L 119.147 13.325 L 148.851 49.861 L 148.771 20.197 C 148.572 13.037 143.053 13.534 142.964 13.166 L 157.95 13.166 C 157.89 13.524 151.983 13.664 151.725 20.207 L 151.665 66.15 C 151.665 66.15 152.192 69.631 150.054 66.886 C 149.119 65.693 114.354 21.957 114.354 21.957 C 114.036 21.589 113.886 21.957 113.857 23.081 L 113.857 61.317 L 113.797 61.914 Z  M 65.636 41.13 C 64.194 41.13 64.393 40.285 64.94 38.942 C 64.94 38.942 69.813 26.89 70.409 25.418 C 71.155 23.528 71.951 23.926 72.498 25.537 L 77.42 39.161 C 77.898 40.673 78.494 41.15 76.853 41.15 L 65.616 41.15 M 94.545 60.661 L 74.596 13.624 C 73.144 12.033 72.607 13.853 72.607 13.853 C 70.618 18.377 52.38 62.013 52.38 62.013 C 49.894 67.831 46.662 67.145 46.662 67.542 L 59.59 67.542 C 59.59 66.896 52.629 67.96 55.016 61.904 L 61.917 45.098 C 62.643 44.034 62.712 43.755 64.403 43.755 L 77.331 43.755 C 78.902 43.755 78.982 43.755 79.658 45.317 L 86.191 61.228 C 88.101 67.592 82.293 67.194 82.373 67.632 L 100.72 67.632 C 100.899 67.085 97.936 68.905 94.604 60.8 M 241.493 4.077 L 219.615 10.74 L 241.493 0 L 263.44 10.74 L 241.493 4.077 Z  M 241.493 65.474 L 241.294 65.474 C 230.813 65.474 223.891 55.669 223.891 40.394 C 223.891 22.892 230.972 14.439 241.473 14.439 C 251.954 14.439 259.094 22.912 259.094 40.394 C 259.094 55.589 251.875 65.355 241.473 65.454 M 241.592 12.371 C 234.136 12.25 226.947 15.144 221.654 20.397 C 216.362 25.651 213.414 32.818 213.479 40.275 C 213.479 54.654 224.418 67.483 241.443 67.483 C 258.468 67.483 269.785 54.694 269.785 40.295 C 269.842 32.83 266.884 25.658 261.58 20.405 C 256.276 15.152 249.076 12.262 241.612 12.391 M 189.504 65.355 C 201.854 65.156 207.403 56.633 208.497 56.246 C 209.034 56.076 202.471 67.413 189.354 67.413 C 159.919 67.413 160.416 40.911 160.416 40.911 C 161.331 22.295 176.496 11.197 191.025 12.719 C 193.913 13.003 196.753 13.652 199.478 14.648 C 200.82 15.076 204.45 17.035 205.882 16.488 C 206.876 16.09 207.632 14.002 207.871 13.862 L 208.01 28.381 C 207.016 28.381 203.734 14.419 189.712 14.419 C 178.237 14.419 169.525 27.476 169.704 40.275 C 170.003 61.615 184.999 65.464 189.513 65.384 M 357.425 40.772 L 357.425 61.078 C 357.425 65.116 357.096 65.613 359.742 65.633 L 374.32 65.633 C 377.88 65.414 380.158 64.509 381.629 63.346 C 384.981 60.711 384.195 56.753 384.871 56.613 L 384.533 67.453 L 343.602 67.453 C 343.443 67.075 349.698 68.109 349.698 59.219 L 349.698 21.828 C 349.698 12.878 343.93 14.27 344 13.574 L 384.573 13.574 L 384.921 24.264 C 384.105 24.215 386.253 15.881 374.181 15.155 L 360.716 15.155 C 358.389 15.155 357.435 15.155 357.435 19.59 L 357.435 31.126 L 357.494 33.682 C 357.494 35.671 357.494 35.84 360.318 35.84 L 373.346 35.84 C 379.909 35.84 379.014 29.972 379.591 29.972 C 379.591 29.972 379.591 43.895 379.591 43.895 C 379.014 43.895 379.869 37.431 373.624 37.63 L 360.458 37.63 C 357.574 37.58 357.474 38.624 357.474 40.613 L 357.425 40.772 Z " fill="rgb(0,0,0)"/></g></svg>